# xmcd CD database file
#
# Track frame offsets:
#	150
#	10000
#	29247
#	50567
#	69432
#	138142
#	153197
#	184990
#	201080
#	240412
#	272217
#
# Disc length: 4022 seconds
#
# Revision: 4
# Processed by: cddbd v1.5.1PL0 Copyright (c) Steve Scherf et al.
# Submitted via: CDex 1.50beta9
#
DISCID=950fb40b
DTITLE=Various Artist - Impulse Sampler
DYEAR=1997
DGENRE=Jazz
TTITLE0=Johnny Hartman - Sleepin' Bee
TTITLE1=Diana Krall - Hit That Jive Jack
TTITLE2=Danilo Perez - Evidence and Four In One
TTITLE3=Roy Haynes/ Snap Crackle
TTITLE4=Dizzy Gillespie - Kush
TTITLE5=Ben WEbster - The Single Petal Of A Rose
TTITLE6=Max Roach - Lonesome Lover
TTITLE7=John Coltrane - Bessie's Blues
TTITLE8=John Coltrane - Crescent 
TTITLE9=Pharoah Sanders - Thembi
TTITLE10=Charles Mingus - Better Get Hit In Yo' Soul
EXTD=YEAR: 1997
EXTT0=
EXTT1=
EXTT2=
EXTT3=
EXTT4=
EXTT5=
EXTT6=
EXTT7=
EXTT8=
EXTT9=
EXTT10=
PLAYORDER=
